inDegrees=no
num_controls=7
num_derivatives=13
num_iterations=174
num_multipliers=7
num_parameters=0
num_slacks=7
num_states=26
objective=4.148128
objective_accelerations=0.295546
objective_balance=0.079204
objective_effort=0.293864
objective_height=3.438476
objective_ligament=0.041038
solver_duration=1872.013145
status=Solve_Succeeded
success=true
DataType=double
version=3
OpenSimVersion=4.4-2022-07-23-0e9fedc
endheader
time	/jointset/ground_pelvis/pelvis_tilt/value	/jointset/ground_pelvis/pelvis_tx/value	/jointset/ground_pelvis/pelvis_ty/value	/jointset/hip_l/hip_flexion_l/value	/jointset/hip_l/hip_adduction_l/value	/jointset/hip_l/hip_rotation_l/value	/jointset/back/lumbar_extension/value	/jointset/patellofemoral_l/patellar_flexion_l/value	/jointset/knee_l/knee_flexion_l/value	/jointset/knee_l/knee_adduction_l/value	/jointset/knee_l/knee_rotation_l/value	/jointset/ankle_l/ankle_angle_l/value	/jointset/subtalar_l/subtalar_angle_l/value	/jointset/ground_pelvis/pelvis_tilt/speed	/jointset/ground_pelvis/pelvis_tx/speed	/jointset/ground_pelvis/pelvis_ty/speed	/jointset/hip_l/hip_flexion_l/speed	/jointset/hip_l/hip_adduction_l/speed	/jointset/hip_l/hip_rotation_l/speed	/jointset/back/lumbar_extension/speed	/jointset/patellofemoral_l/patellar_flexion_l/speed	/jointset/knee_l/knee_flexion_l/speed	/jointset/knee_l/knee_adduction_l/speed	/jointset/knee_l/knee_rotation_l/speed	/jointset/ankle_l/ankle_angle_l/speed	/jointset/subtalar_l/subtalar_angle_l/speed	/forceset/tau_hip_flexion_l	/forceset/tau_hip_adduction_l	/forceset/tau_hip_rotation_l	/forceset/tau_knee_flexion_l	/forceset/tau_ankle_angle_l	/forceset/tau_subtalar_angle_l	/forceset/tau_lumbar_extension	lambda_cid13_p0	lambda_cid13_p1	lambda_cid13_p2	lambda_cid13_p3	lambda_cid13_p4	lambda_cid13_p5	lambda_cid14_p0	/jointset/ground_pelvis/pelvis_tilt/accel	/jointset/ground_pelvis/pelvis_tx/accel	/jointset/ground_pelvis/pelvis_ty/accel	/jointset/hip_l/hip_flexion_l/accel	/jointset/hip_l/hip_adduction_l/accel	/jointset/hip_l/hip_rotation_l/accel	/jointset/back/lumbar_extension/accel	/jointset/patellofemoral_l/patellar_flexion_l/accel	/jointset/knee_l/knee_flexion_l/accel	/jointset/knee_l/knee_adduction_l/accel	/jointset/knee_l/knee_rotation_l/accel	/jointset/ankle_l/ankle_angle_l/accel	/jointset/subtalar_l/subtalar_angle_l/accel	gamma_cid13_p0	gamma_cid13_p1	gamma_cid13_p2	gamma_cid13_p3	gamma_cid13_p4	gamma_cid13_p5	gamma_cid14_p0
1	-0.3082530868983053	0.01589002071941482	0.7078468736293416	1.291050710397777	-0.2954682459042961	0.1207329622552551	-0.4362818653100086	1.143497440324472	1.14349744032454	-0.1745328074455673	0.1745328139634583	0.3672099877878564	0.03669865891298408	-0.008671916082757499	-0.0008831145449733391	-0.003341340687943801	0.01698456325347695	0.0004585168221024071	0.003077247026456177	-0.007671680124030336	0.008863938770646056	0.008863938770645452	-5.064627972304246e-06	6.542622179681581e-06	0.001019196767204463	0.0008119331690687802	-0.2432806108355592	0.03721352802479206	-0.02391012328893699	-0.3133729518774555	-0.04944482713336841	0.04397450196869534	0.2435057806054699	-58.15765241293263	-10.86674022354618	3.559230428276739	18.95014350834222	-697.4722996545989	-61.12474957535681	-2.219440962136036	0.6318217359723448	-0.04424467449951833	1.173277272159676	-3.732167907564942	-0.2369691496739037	-1.532307010280565	0.5280775968412237	-4.511294287925112	-4.511294287925015	-0.04040247501896815	0.01018364609273083	-1.704122739266759	-0.7451992440144348	1.93216009435028e-09	-1.286783451090057e-09	-3.786016141198503e-09	-3.566231647349138e-09	1.908127050825604e-09	-4.528034399351481e-09	7.314329392443292e-10
1.01	-0.3083083698003875	0.01587891386340253	0.7078720120677968	1.291034529286664	-0.2954748504068069	0.1206861185132181	-0.4363323129985824	1.143361079935303	1.143361079935324	-0.1745327965630534	0.1745328727309495	0.3671352483487596	0.03667056856703996	-0.002368761723698381	-0.001343431605253539	0.008365909287856707	-0.020221853004925	-0.001778321633765987	-0.01244099506802634	-0.002470835131481409	-0.03612650263217568	-0.03612650263217697	5.668096791555171e-06	4.667722670419482e-06	-0.01597228923835264	-0.006428834344470687	-0.2429882716769048	0.03718529037940989	-0.02391794247601347	-0.3133030844301996	-0.04930679488742412	0.04396921368218623	0.2432089730911693	-58.09461707233331	-10.8777527493596	3.563581882318901	18.95994064229152	-697.1245313509073	-61.13578353612525	-2.223819152716222	0.6319475249657428	-0.0477013453742732	1.168980045677803	-3.715038864677181	-0.2168813373040394	-1.560836863676664	0.5083190507075154	-4.491491090784678	-4.491491090784822	0.02157353385923105	-0.005459824624926986	-1.697442135008195	-0.7133416441131856	-2.441775746449912e-09	-1.386425581010545e-08	2.946183257929243e-08	5.512396275331101e-10	-4.688106971384547e-09	-1.346290991743808e-08	-4.347949150654687e-09
1.02	-0.3083001441110609	0.01586304861207104	0.7080141292430876	1.290646251937024	-0.2955037913226295	0.120484241539309	-0.4363323129985824	1.142775100727241	1.142775100727217	-0.1745327258757527	0.1745328953961221	0.3668904379288457	0.03657010531814248	0.004029802199081525	-0.001834793608816355	0.0200544066791596	-0.05743468445130198	-0.004008765840063938	-0.02792939934829155	0.002419253870900416	-0.08105982500795636	-0.08105982500795784	6.896326962436309e-06	-6.77842925920064e-07	-0.03299499939623015	-0.01366264742158924	-0.2426959325182662	0.0371570527340292	-0.02392576166309743	-0.3132332169829433	-0.04916876264147722	0.04396392539568012	0.2429121655768528	-58.04277625730163	-10.88508941317631	3.565386747146984	19.01888893746992	-696.9160999246708	-61.11771678746543	-2.242656016637281	0.6509036487164911	-0.05045366315603538	1.169526755260154	-3.73345094515995	-0.2356902997598077	-1.526339447437096	0.4659263988079007	-4.499870482516909	-4.49987048251671	-0.0423033739375596	0.00948951287529637	-1.710367569730831	-0.7438083567302384	-7.702535346480784e-09	-2.65616815466846e-08	6.034498791357694e-08	6.438978958860961e-09	-1.16384415885511e-08	-2.212031037171348e-08	-9.145965459133594e-09
1.03	-0.3082278891815737	0.01584233004273905	0.7082730064840577	1.289885966724915	-0.2955549900073637	0.1201276282544157	-0.4362832745812617	1.141740083358583	1.141740083358531	-0.1745326893364051	0.1745328526809198	0.3664755436585778	0.03639746815959388	0.01039346791157921	-0.002292520054208086	0.031714787165443	-0.09460786677192741	-0.006228390548963589	-0.04339092355889817	0.00750764204641002	-0.1259329812489094	-0.1259329812489037	1.097515773389012e-06	-6.494593435397799e-06	-0.0499591099899387	-0.02085071315480417	-0.2431685074272932	0.03723325404172659	-0.02394048582946477	-0.3127376701748619	-0.04916095250565566	0.04404724193726178	0.2434248073316098	-58.03720825996582	-10.93700624891459	3.590520733955273	18.81798092248862	-697.0364637443862	-61.13146852180115	-2.276140737229391	0.6249405727278121	-0.04096959995164445	1.163351782280198	-3.707078779887183	-0.2147245617117487	-1.555722069514994	0.5480308747110614	-4.479435256368694	-4.479435256367733	0.02037928016015451	-0.005428525678906754	-1.685721645363787	-0.7041995965861604	-1.297234416854463e-08	-3.926033129732051e-08	9.120401372351238e-08	1.234478224994847e-08	-1.859238947709477e-08	-3.077487944778671e-08	-1.394111068821025e-08
1.04	-0.3080928290869183	0.01581752671600893	0.7086482991472841	1.288754384308725	-0.2956283101402386	0.1196164670950879	-0.4361798002452887	1.140256655015218	1.140256655015138	-0.1745326913021962	0.1745327895468843	0.3658917505141382	0.03615337156071922	0.01659083523253121	-0.002651745088440801	0.04333749113043959	-0.1316941252674877	-0.008433055468131076	-0.0588389742352072	0.013305464133462	-0.1707420199492296	-0.1707420199492169	-8.047006265883182e-07	-4.761610537963324e-06	-0.0667747742305637	-0.02795453548678079	-0.2436410823363207	0.03730945534942244	-0.02395520999582398	-0.3122421233667808	-0.04915314236983428	0.04413055847884109	0.2439374490863668	-58.04281657498074	-10.98526263549243	3.613124559294634	18.66564428213495	-697.2960181591206	-61.11635223621283	-2.324605919522545	0.6176439704073429	-0.03075338092422398	1.16199145100279	-3.716066180146933	-0.2326983418133826	-1.523644740577607	0.607813181116368	-4.487046974390309	-4.487046974390174	-0.04152405497973509	0.01099945955670768	-1.680678299114113	-0.7269596764825841	-1.659578196037388e-08	-5.370420602590658e-08	1.218449584076411e-07	1.461120395461631e-08	-2.49488267698296e-08	-4.270331315370035e-08	-1.861064866834662e-08
1.05	-0.3078965323284575	0.01578959846654589	0.7091395843319338	1.287252395693791	-0.2957235795387408	0.1189509682005661	-0.4360151030702867	1.138325529735718	1.138325529735674	-0.1745327336914483	0.1745327619424118	0.3651405003357755	0.03583870079634825	0.02264896894853976	-0.002919942516541122	0.05490847882474052	-0.1686853316684843	-0.01061502178747723	-0.074255239402018	0.01972401003660627	-0.215464272596932	-0.2154642725969408	-5.671462687296952e-06	-9.057420799192619e-07	-0.08345426738381402	-0.03495969993368965	-0.2437872143594884	0.03737300040410076	-0.02399164027773354	-0.3115955619779036	-0.0489467701047543	0.04423581356294062	0.2441569555089368	-57.9607533950242	-11.06637478471589	3.650079091991079	18.47742335853032	-697.1536849371898	-61.14032497492553	-2.388560723587834	0.5969655857894152	-0.02275520607258225	1.152986061094304	-3.687909106946898	-0.2100973242167338	-1.549804904389962	0.6723811703388983	-4.461995204496651	-4.461995204499943	0.02032296404453084	-0.004971335625757981	-1.658436387889801	-0.684314495070884	-2.016777065750832e-08	-6.820261903505357e-08	1.524790880565884e-07	1.676389498470856e-08	-3.128659185644542e-08	-5.473405512929648e-08	-2.327626142195362e-08
1.06	-0.3076402407301175	0.01575940778633789	0.7097462461200167	1.285381042767476	-0.2958404989098813	0.1181314691544457	-0.4357835192611674	1.135947745770833	1.135947745770826	-0.1745327665581515	0.1745327628993819	0.3642230849129885	0.03545457445425294	0.02858980320821929	-0.003104231237431476	0.06641281181706674	-0.2055669875443165	-0.0127630499956836	-0.08963900455511431	0.02668279095676787	-0.2600737570260916	-0.2600737570261222	1.09980980277078e-06	9.506817335841061e-07	-0.1000078231154366	-0.04184565103163225	-0.2439333463826472	0.0374365454587808	-0.02402807055964567	-0.310949000589025	-0.04874039783967446	0.04434106864704273	0.2443764619315154	-57.8897268408334	-11.14394079294763	3.684624328333909	18.33569226307383	-697.1493517084333	-61.13627413027641	-2.468624895794088	0.5941840791415323	-0.01397163948222606	1.14866051060785	-3.694156075114055	-0.2259107195854237	-1.517144737834714	0.7158601845198299	-4.464493330681746	-4.464493330681709	-0.03919644806956987	0.01059957062780197	-1.655490814788557	-0.7031170066893307	-2.368193268798273e-08	-8.261663387138792e-08	1.801482364963457e-07	1.878421814449071e-08	-3.694838043545765e-08	-6.648243108079964e-08	-2.762391805563151e-08
